<?xml version="1.0" encoding="UTF-8" standalone="no"?>
<!DOCTYPE svg PUBLIC "-//W3C//DTD SVG 1.1//EN" "http://www.w3.org/Graphics/SVG/1.1/DTD/svg11.dtd">

<!-- Created with Vectornator (http://vectornator.io/) -->
<svg height="100%" stroke-miterlimit="10" style="fill-rule:nonzero;clip-rule:evenodd;stroke-linecap:round;stroke-linejoin:round;" version="1.1" viewBox="0 0 200 94.77" width="100%" xml:space="preserve" xmlns="http://www.w3.org/2000/svg" xmlns:vectornator="http://vectornator.io" xmlns:xlink="http://www.w3.org/1999/xlink">
<metadata>
<vectornator:setting key="IsTimeLapseWatermarkDisabled" value="false"/>
<vectornator:setting key="UndoHistoryDisabled" value="true"/>
<vectornator:setting key="VNDimensionsVisible" value="true"/>
<vectornator:setting key="VNSnapToGuides" value="true"/>
<vectornator:setting key="WDCMYKEnabledKey" value="false"/>
<vectornator:setting key="WDDisplayWhiteBackground" value="false"/>
<vectornator:setting key="WDDynamicGuides" value="false"/>
<vectornator:setting key="WDGuidesVisible" value="true"/>
<vectornator:setting key="WDIsolateActiveLayer" value="false"/>
<vectornator:setting key="WDOutlineMode" value="false"/>
<vectornator:setting key="WDRulersVisible" value="true"/>
<vectornator:setting key="WDSnapToEdges" value="false"/>
<vectornator:setting key="WDSnapToGrid" value="false"/>
<vectornator:setting key="WDSnapToPoints" value="false"/>
<vectornator:setting key="WDUnits" value="Points"/>
</metadata>
<defs/>
<g id="Layer-1" vectornator:layerName="Layer 1"/>
<g id="Untitled" vectornator:layerName="Untitled">
<g opacity="1">
<path d="M49.9124 94.7668C44.8964 94.7668 36.8458 93.8621 27.2034 89.4643C25.9437 88.9949 18.523 85.9259 10.3807 76.1458C10.1058 75.8023 4.07073 68.3128 2.34152 61.4304C2.2499 61.1557-0.842096 50.9176 0.222924 43.8176C0.222924 43.657 0.89858 34.1634 5.44496 25.9068C5.92594 24.8418 8.17048 20.3641 15.0759 13.4586C15.3737 13.1609 21.8784 6.86238 29.1159 4.29717C29.219 4.25137 34.8762 1.94957 42.0679 0.586788C42.6633 0.506628 52.386-0.695819 58.4668 1.06777L56.8066 6.81658C52.7523 5.63705 45.469 6.18673 43.0068 6.49595C36.5825 7.72128 31.3032 9.87421 31.2574 9.88566C25.1421 12.0615 19.336 17.6615 19.2788 17.7187C12.6596 24.3264 10.9075 28.346 10.8846 28.3804L10.7357 28.6896C6.7848 35.7783 6.15496 44.3901 6.15496 44.4818C5.26171 50.4709 8.06742 59.747 8.09032 59.8387C9.53326 65.5759 14.9271 72.2982 14.9843 72.3552C22.5196 81.4137 29.2304 83.853 29.2991 83.8758C43.9001 90.5409 54.2299 88.468 54.3327 88.4452C61.433 87.2426 64.6511 82.5705 64.7884 82.3644C69.3003 75.8023 68.6247 71.1987 68.6018 71.0039L68.5562 70.4888L68.5562 34.5187L74.5339 34.5187L74.5339 70.2598C74.7401 71.8287 75.1064 77.9095 69.7469 85.7083C69.5982 85.9374 65.0977 92.6824 55.4667 94.3087C55.3404 94.343 53.3367 94.7668 49.9124 94.7668Z" fill="#ca5f36" fill-rule="evenodd" opacity="1" stroke="none"/>
<path d="M84.8516 26.8202C85.4245 26.8202 85.9856 26.9805 86.4779 27.3012C87.3369 27.8623 87.852 28.8128 87.8406 29.8435L87.6919 42.6236L87.795 73.6698C88.2184 78.0672 91.2074 82.0294 91.2303 82.0754C97.1167 89.1868 104.343 88.7059 104.411 88.6831C112.966 88.5914 117.272 83.0946 117.444 82.8541C120.146 79.7848 120.994 76.2807 121.005 76.2464C121.028 76.1548 121.062 76.0402 121.097 75.9486C121.646 74.3568 121.669 71.6428 121.624 70.7378L121.624 23.3159C121.624 20.1552 121.016 18.3917 121.005 18.3688C119.849 14.0514 116.814 11.1083 116.791 11.0739C114.65 8.8179 111.775 7.53531 111.741 7.52386C111.031 7.21465 107.79 6.11528 107.778 6.11528C107.641 6.08093 106.748 6.01222 106.141 6.00077L77.4309 5.97787L63.8605 6.00077C62.7269 6.00077 61.0663 6.4932 60.4363 6.72222C58.3865 7.62692 57.8942 8.88664 57.7797 9.27598L57.6766 32.0308C57.8482 36.5884 59.1539 36.9438 59.6347 37.0697C60.6425 37.3672 61.7648 37.0008 61.7762 37.0008L62.8984 36.5542L83.5806 27.0721C84.0044 26.9118 84.4282 26.8202 84.8516 26.8202ZM104.056 94.6722C101.72 94.6722 93.3721 94.0426 86.5582 85.8086C86.3292 85.5107 82.424 80.4034 81.8283 74.0019L81.7138 67.8637L81.8055 34.4816L63.9294 42.5894C63.5973 42.7153 60.9061 43.666 58.043 42.8412C54.012 41.7535 51.9162 38.2604 51.71 32.1911C51.71 32.1568 51.71 32.1109 51.71 32.0766L51.8131 8.9897C51.8705 8.22241 52.4316 3.71039 58.1918 1.19098C58.6384 1.01922 61.341 0.0229093 63.8605 0.0229093L100.197 0L106.232 0.0229093C106.622 0.0343638 108.328 0.0801714 109.531 0.400821C111.466 1.05357 113.665 1.80941 114.237 2.08424C114.317 2.11859 118.131 3.81348 121.028 6.85967C121.085 6.90547 125.139 10.7876 126.685 16.4678C126.914 17.1434 127.613 19.5254 127.613 23.3159L127.613 70.6119C127.624 70.9212 127.773 74.8149 126.811 77.7465C126.571 78.6626 125.357 82.9455 122.093 86.633C122.013 86.7707 116.104 94.5349 104.698 94.6494C104.652 94.6608 104.434 94.6722 104.056 94.6722Z" fill="#e2aaa4" fill-rule="evenodd" opacity="1" stroke="none"/>
<path d="M152.853 6.25883C130.144 6.25883 111.683 24.7306 111.683 47.428C111.683 70.1257 130.155 88.5975 152.853 88.5975C175.55 88.5975 194.022 70.1257 194.022 47.428C194.034 24.7306 175.562 6.25883 152.853 6.25883ZM152.853 94.5866C126.857 94.5866 105.706 73.4354 105.706 47.4394C105.706 21.444 126.857 0.292415 152.853 0.292415C178.848 0.292415 200 21.444 200 47.4394C200.011 73.4354 178.86 94.5866 152.853 94.5866Z" fill="#442d81" fill-rule="evenodd" opacity="1" stroke="none"/>
</g>
</g>
</svg>
