<?xml version="1.0" encoding="UTF-8" standalone="no"?>
<!DOCTYPE svg PUBLIC "-//W3C//DTD SVG 1.1//EN" "http://www.w3.org/Graphics/SVG/1.1/DTD/svg11.dtd">

<!-- Created with Vectornator (http://vectornator.io/) -->
<svg height="100%" stroke-miterlimit="10" style="fill-rule:nonzero;clip-rule:evenodd;stroke-linecap:round;stroke-linejoin:round;" version="1.1" viewBox="0 0 243.02 55.3" width="100%" xml:space="preserve" xmlns="http://www.w3.org/2000/svg" xmlns:vectornator="http://vectornator.io" xmlns:xlink="http://www.w3.org/1999/xlink">
<metadata>
<vectornator:setting key="IsTimeLapseWatermarkDisabled" value="false"/>
<vectornator:setting key="UndoHistoryDisabled" value="true"/>
<vectornator:setting key="VNDimensionsVisible" value="true"/>
<vectornator:setting key="VNSnapToGuides" value="true"/>
<vectornator:setting key="WDCMYKEnabledKey" value="false"/>
<vectornator:setting key="WDDisplayWhiteBackground" value="false"/>
<vectornator:setting key="WDDynamicGuides" value="false"/>
<vectornator:setting key="WDGuidesVisible" value="true"/>
<vectornator:setting key="WDIsolateActiveLayer" value="false"/>
<vectornator:setting key="WDOutlineMode" value="false"/>
<vectornator:setting key="WDRulersVisible" value="true"/>
<vectornator:setting key="WDSnapToEdges" value="false"/>
<vectornator:setting key="WDSnapToGrid" value="false"/>
<vectornator:setting key="WDSnapToPoints" value="false"/>
<vectornator:setting key="WDUnits" value="Points"/>
</metadata>
<defs/>
<g id="Layer-1" vectornator:layerName="Layer 1"/>
<clipPath id="ArtboardFrame">
<rect height="55.3" width="243.02" x="0" y="0"/>
</clipPath>
<g clip-path="url(#ArtboardFrame)" id="Untitled" vectornator:layerName="Untitled">
<g opacity="1">
<path d="M21.0024 45.2C14.9024 45.2 11.0024 40.4 11.0024 34.3L11.0024 34.2C11.0024 28.4 15.0024 23.5 20.5024 23.5C24.5024 23.5 27.0024 25.2 29.5024 27.8L36.3024 20.5C32.6024 16.4 28.0024 13.9 20.6024 13.9C8.60245 13.9 0.0024494 23.1 0.0024494 34.4L0.0024494 34.5C0.0024494 45.7 8.70245 54.8 20.5024 54.8C28.4024 54.8 32.8024 51.8 36.6024 47.6L30.0024 41.1C27.3024 43.6 24.7025 45.2 21.0024 45.2Z" fill="#ffffff" fill-rule="evenodd" opacity="1" stroke="none"/>
<path d="M54.8024 4.6L43.7025 4.6L43.7025 14.7L41.1025 14.7L39.0025 14.7L39.0025 24.2L41.1025 24.2L43.7025 24.2L43.7025 42.8C43.7025 51.9 48.3025 54.6 55.2025 54.6C58.9025 54.6 61.7025 53.7 64.0025 52.3L64.0025 43.3C62.4025 44.2 60.5025 44.7 58.5025 44.7C56.0025 44.7 54.9025 43.4 54.9025 40.9L54.9025 24.2L64.1025 24.2L64.1025 14.7L54.8024 14.7L54.8024 4.6Z" fill="#ffffff" fill-rule="evenodd" opacity="1" stroke="none"/>
<path d="M88.4024 13.9C76.1024 13.9 67.0024 23.1 67.0024 34.4L67.0024 34.5C67.0024 45.8 76.0024 54.8 88.2024 54.8C100.502 54.8 109.602 45.6 109.602 34.3L109.602 34.2C109.702 22.9 100.602 13.9 88.4024 13.9ZM98.7025 34.5C98.7025 40.3 94.9025 45.2 88.5025 45.2C82.3025 45.2 78.2025 40.1 78.2025 34.3L78.2025 34.2C78.2025 28.4 82.0025 23.5 88.4024 23.5C94.6024 23.5 98.7025 28.6 98.7025 34.4L98.7025 34.5Z" fill="#ffffff" fill-rule="evenodd" opacity="1" stroke="none"/>
<path d="M117.502-2.44379e-07L121.802-2.44379e-07L121.802-2.44379e-07L121.802 54.3L121.802 54.3L117.502 54.3L117.502 54.3L117.502-2.44379e-07L117.502-2.44379e-07Z" fill="#ffffff" fill-rule="evenodd" opacity="1" stroke="none"/>
<path d="M146.002 15.6C143.402 15.6 141.002 15.9 138.902 16.5C136.802 17.1 134.702 17.9 132.602 18.9L132.302 19.1L133.902 22.9L134.302 22.7C136.002 21.8 137.802 21.1 139.702 20.6C141.602 20 143.702 19.8 145.902 19.8C149.702 19.8 152.602 20.7 154.702 22.6C156.802 24.4 157.802 27.2 157.802 30.9L157.802 32C156.102 31.6 154.402 31.2 152.602 30.9C150.702 30.6 148.402 30.5 145.702 30.5C143.202 30.5 141.002 30.8 138.902 31.3C136.902 31.9 135.102 32.7 133.602 33.7C132.102 34.8 131.002 36.1 130.102 37.6C129.302 39.2 128.802 41 128.802 43L128.802 43.1C128.802 45.1 129.202 46.9 130.102 48.4C131.002 49.9 132.102 51.2 133.502 52.2C134.902 53.2 136.502 54 138.202 54.5C139.902 55 141.702 55.2 143.502 55.2C145.302 55.2 147.002 55 148.502 54.6C150.002 54.2 151.402 53.6 152.602 53C153.802 52.3 154.902 51.5 155.802 50.7C156.402 50.1 157.002 49.5 157.502 48.9L157.502 54.4L161.802 54.4L161.802 30.6C161.802 26 160.502 22.4 157.902 19.8C155.302 17 151.302 15.6 146.002 15.6ZM157.902 36L157.902 40C157.902 41.6 157.502 43.2 156.802 44.5C156.102 45.9 155.102 47 153.802 48C152.502 49 151.102 49.7 149.402 50.3C147.702 50.8 145.902 51.1 144.102 51.1C142.702 51.1 141.402 50.9 140.102 50.5C138.802 50.1 137.702 49.6 136.702 48.9C135.702 48.2 135.002 47.4 134.402 46.4C133.802 45.4 133.602 44.3 133.602 43L133.602 42.9C133.602 40.4 134.602 38.4 136.602 36.9C138.702 35.4 141.702 34.6 145.502 34.6C148.202 34.6 150.602 34.8 152.602 35.1C154.602 35.3 156.402 35.6 157.902 36Z" fill="#ffffff" fill-rule="evenodd" opacity="1" stroke="none"/>
<path d="M203.102 20.5C201.402 18.8 199.402 17.5 197.102 16.6C194.902 15.7 192.602 15.3 190.302 15.3C188.402 15.3 186.702 15.6 185.102 16.1C183.502 16.6 182.102 17.3 180.802 18.2C179.502 19 178.402 20.1 177.302 21.2C176.502 22 175.802 22.9 175.202 23.8L175.202-2.44379e-07L170.902-2.44379e-07L170.902 54.3L175.202 54.3L175.202 47.1C175.802 47.9 176.502 48.8 177.202 49.6C178.202 50.7 179.402 51.7 180.602 52.5C181.902 53.3 183.302 54 184.902 54.5C186.502 55 188.302 55.3 190.102 55.3C192.402 55.3 194.702 54.8 196.902 53.9C199.102 53 201.102 51.7 202.902 49.9C204.602 48.2 206.102 46.1 207.102 43.6C208.202 41.1 208.702 38.3 208.702 35.3L208.702 35.1C208.702 32 208.202 29.2 207.102 26.8C206.302 24.3 204.902 22.2 203.102 20.5ZM204.402 35.3L204.402 35.4C204.402 37.8 204.002 40.1 203.302 42C202.602 43.9 201.502 45.6 200.302 46.9C199.002 48.2 197.502 49.3 195.802 50C192.402 51.4 188.302 51.5 184.602 49.9C182.802 49.1 181.202 48.1 179.802 46.7C178.402 45.3 177.302 43.7 176.502 41.8C175.702 39.9 175.202 37.7 175.202 35.4L175.202 35.3C175.202 33 175.602 30.8 176.502 28.9C177.302 27 178.502 25.3 179.802 23.9C181.202 22.5 182.802 21.4 184.602 20.7C186.402 19.9 188.302 19.6 190.202 19.6C192.102 19.6 194.002 20 195.702 20.7C197.402 21.4 199.002 22.5 200.302 23.8C201.602 25.2 202.702 26.8 203.402 28.8C204.002 30.7 204.402 32.9 204.402 35.3Z" fill="#ffffff" fill-rule="evenodd" opacity="1" stroke="none"/>
<path d="M241.902 39.3C241.202 38.1 240.202 37.1 239.002 36.3C237.802 35.5 236.402 34.8 234.902 34.3C233.402 33.8 231.902 33.3 230.402 32.9C229.102 32.5 227.802 32.1 226.502 31.7C225.302 31.3 224.202 30.8 223.202 30.3C222.302 29.8 221.602 29.2 221.002 28.5C220.502 27.8 220.202 27 220.202 26.1L220.202 26C220.202 24.2 220.902 22.8 222.402 21.6C223.902 20.4 225.902 19.8 228.402 19.8C230.402 19.8 232.302 20.1 234.302 20.8C236.302 21.5 238.102 22.4 239.802 23.5L240.102 23.7L242.402 20.1L242.102 19.9C240.202 18.6 238.102 17.6 235.702 16.8C231.302 15.4 227.002 15.3 223.502 16.4C221.902 16.9 220.602 17.7 219.502 18.6C218.402 19.6 217.502 20.7 216.902 22C216.302 23.3 215.902 24.7 215.902 26.3L215.902 26.4C215.902 28.1 216.302 29.6 217.102 30.8C217.902 32 218.902 32.9 220.202 33.7C221.402 34.5 222.902 35.1 224.402 35.6C225.902 36.1 227.502 36.6 229.002 37C230.302 37.4 231.502 37.8 232.702 38.2C233.802 38.6 234.902 39.1 235.802 39.6C236.702 40.2 237.402 40.8 237.902 41.6C238.402 42.3 238.602 43.2 238.602 44.2L238.602 44.3C238.602 46.4 237.802 48 236.102 49.2C234.402 50.4 232.302 51 229.902 51C227.602 51 225.302 50.6 223.102 49.7C220.902 48.9 218.702 47.7 216.702 46.1L216.402 45.9L213.802 49.3L214.102 49.5C216.102 51.1 218.602 52.5 221.302 53.5C224.102 54.5 226.902 55.1 229.702 55.1C231.502 55.1 233.302 54.8 234.902 54.3C236.502 53.8 237.902 53 239.102 52C240.302 51 241.302 49.8 242.002 48.4C242.702 47 243.002 45.4 243.002 43.7L243.002 43.6C243.102 41.9 242.702 40.5 241.902 39.3Z" fill="#ffffff" fill-rule="evenodd" opacity="1" stroke="none"/>
</g>
</g>
</svg>
