<svg width="198" height="31" viewBox="0 0 198 31" fill="none" xmlns="http://www.w3.org/2000/svg">
<g clip-path="url(#clip0_20489_39)">
<mask id="mask0_20489_39" style="mask-type:luminance" maskUnits="userSpaceOnUse" x="0" y="0" width="198" height="31">
<path d="M198 0H0V30.06H198V0Z" fill="white"/>
</mask>
<g mask="url(#mask0_20489_39)">
<path d="M26.6498 13.77C26.4298 13.39 26.2098 13.03 25.9998 12.67C25.6798 12.13 25.3598 11.61 25.0598 11.11C24.7298 10.57 24.4098 10.06 24.0998 9.56003C20.8098 4.32003 18.6598 1.70003 17.4298 0.420029C17.4298 0.420029 17.4298 0.420029 17.4198 0.410029C17.4198 0.410029 17.4098 0.400029 17.3998 0.390029C17.3298 0.320029 17.2598 0.260029 17.1798 0.210029C17.1798 0.210029 17.1698 0.210029 17.1598 0.210029C17.0798 0.160029 16.9998 0.120029 16.9198 0.0900293C16.9198 0.0900293 16.9198 0.0900293 16.9098 0.0900293C16.8998 0.0900293 16.8798 0.0900293 16.8698 0.0800293C16.7898 0.0500293 16.6998 0.0400293 16.6098 0.0300293C16.5998 0.0300293 16.5798 0.0300293 16.5698 0.0300293C16.4998 0.0300293 16.4298 0.0300293 16.3498 0.0300293C16.3398 0.0300293 16.3298 0.0300293 16.3098 0.0300293C16.2198 0.0300293 16.1398 0.0600293 16.0498 0.0900293C16.0398 0.0900293 16.0198 0.0900293 16.0098 0.100029C15.9298 0.130029 15.8498 0.170029 15.7698 0.220029C15.7698 0.220029 15.7598 0.220029 15.7498 0.230029C15.6698 0.280029 15.5998 0.340029 15.5298 0.410029C15.5298 0.410029 15.5198 0.420029 15.5098 0.430029C15.5098 0.430029 15.5098 0.430029 15.4998 0.440029C14.3098 1.70003 12.2498 4.27003 9.13981 9.33003C9.00981 9.54003 8.9998 9.79003 9.1098 10.01C9.7498 11.3 10.4398 12.6 11.1498 13.89C11.2798 14.12 11.5198 14.25 11.7798 14.24C13.3598 14.16 14.9498 14.12 16.5598 14.11C18.3098 14.1 20.0498 14.13 21.7698 14.2C22.3398 14.22 22.9098 14.25 23.4698 14.28C24.0298 14.31 24.5898 14.35 25.1498 14.39C25.5898 14.42 26.0298 14.46 26.4698 14.49C26.7498 14.51 26.9298 14.22 26.7898 13.98L26.6698 13.77H26.6498Z" fill="#FF423F"/>
<path d="M7.01 12.6401C6.79 13.0201 6.59 13.3901 6.38 13.7501C6.07 14.3001 5.78 14.8301 5.5 15.3401C5.2 15.9001 4.91 16.4301 4.64 16.9401C1.75 22.4201 0.55 25.6001 0.06 27.3001C0.06 27.3001 0.06 27.3101 0.06 27.3201C0.06 27.3201 0.06 27.3401 0.06 27.3501C0.03 27.4401 0.02 27.5401 0.01 27.6301V27.6501H0C0 27.7501 0 27.8401 0.02 27.9301C0.02 27.9401 0.02 27.9601 0.02 27.9701C0.04 28.0601 0.07 28.1401 0.1 28.2201C0.1 28.2301 0.11 28.2401 0.12 28.2501C0.15 28.3101 0.19 28.3801 0.23 28.4401C0.23 28.4401 0.24 28.4601 0.25 28.4701C0.3 28.5401 0.36 28.6001 0.43 28.6601C0.43 28.6601 0.45 28.6801 0.46 28.6901C0.53 28.7501 0.6 28.8001 0.68 28.8401C0.68 28.8401 0.68 28.8401 0.7 28.8401C0.78 28.8801 0.87 28.9201 0.97 28.9401C0.97 28.9401 0.99 28.9401 1 28.9401C1 28.9401 1.01 28.9401 1.02 28.9401C2.71 29.3401 5.96 29.8401 11.89 30.0001C12.13 30.0001 12.36 29.8901 12.49 29.6901C13.29 28.4801 14.07 27.2501 14.83 25.9801C14.96 25.7601 14.96 25.4801 14.82 25.2601C13.97 23.9301 13.13 22.5701 12.31 21.1801C11.42 19.6701 10.58 18.1501 9.79 16.6301C9.52 16.1301 9.27 15.6201 9.01 15.1201C8.76 14.6201 8.51 14.1101 8.26 13.6101C8.07 13.2101 7.88 12.8101 7.69 12.4101C7.57 12.1601 7.22 12.1401 7.09 12.3901L6.97 12.6001L7.01 12.6401Z" fill="#FF423F"/>
<path d="M16.14 30.0201C16.58 30.0201 17 30.0201 17.42 30.0101C18.05 30.0101 18.66 29.9901 19.24 29.9801C19.88 29.9701 20.48 29.9401 21.06 29.9201C27.24 29.6901 30.59 29.1401 32.31 28.7101C32.31 28.7101 32.32 28.7101 32.33 28.7101C32.33 28.7101 32.35 28.7101 32.36 28.7101C32.45 28.6901 32.54 28.6501 32.63 28.6101C32.63 28.6101 32.64 28.6101 32.65 28.6101C32.73 28.5701 32.81 28.5201 32.87 28.4601C32.87 28.4601 32.89 28.4401 32.9 28.4301C32.97 28.3701 33.02 28.3001 33.08 28.2301C33.08 28.2201 33.09 28.2101 33.1 28.2001C33.14 28.1401 33.18 28.0801 33.21 28.0101C33.21 28.0001 33.22 27.9901 33.23 27.9801C33.27 27.9001 33.29 27.8201 33.31 27.7301C33.31 27.7201 33.31 27.7101 33.31 27.6901C33.32 27.6001 33.33 27.5101 33.33 27.4201C33.33 27.4201 33.33 27.4101 33.33 27.4001C33.33 27.4001 33.33 27.3901 33.33 27.3801C33.33 27.2901 33.31 27.1901 33.28 27.1001V27.0801C33.28 27.0801 33.28 27.0701 33.28 27.0601C32.78 25.4001 31.59 22.3301 28.76 17.1101C28.65 16.9001 28.43 16.7601 28.19 16.7401C26.75 16.6501 25.29 16.5901 23.81 16.5601C23.55 16.5601 23.31 16.7001 23.19 16.9301C22.47 18.3301 21.71 19.7401 20.91 21.1401C20.04 22.6601 19.15 24.1501 18.23 25.6001C17.93 26.0801 17.62 26.5601 17.31 27.0301C17 27.5001 16.69 27.9701 16.38 28.4301C16.13 28.8001 15.88 29.1601 15.63 29.5201C15.47 29.7501 15.63 30.0601 15.91 30.0601H16.15L16.14 30.0201Z" fill="#FF423F"/>
<path d="M59.45 6.91007H51.8V26.6201H47.66V6.91007H40.02V3.20007H59.45V6.91007Z" fill="white"/>
<path d="M62.4299 17.3801V3.20007H66.5399V16.4501C66.5399 21.2201 68.2999 23.2701 72.3999 23.2701C76.4999 23.2701 78.2899 21.2201 78.2899 16.4501V3.20007H82.3599V17.3701C82.3599 23.7601 79.1199 27.0401 72.3899 27.0401C65.6599 27.0401 62.4199 23.7601 62.4199 17.3701" fill="white"/>
<path d="M106.26 26.6101H101.33L96.4001 19.5901C96.1401 19.5901 95.8401 19.6201 95.5401 19.6201H90.8701V26.6101H86.8301V3.20007H96.2701C102.26 3.20007 105.44 6.08007 105.44 11.3801C105.44 15.1201 103.75 17.6401 100.64 18.8001L106.27 26.6201L106.26 26.6101ZM90.8701 6.75007V16.1501H95.3701C99.2801 16.1501 101.2 14.3601 101.2 11.5101C101.2 8.36007 99.4801 6.74007 95.8701 6.74007H90.8701V6.75007Z" fill="white"/>
<path d="M109.31 26.61V3.01001H111.36L125.99 19.16V3.21001H130V26.78H127.95L113.31 10.62V26.61H109.31Z" fill="white"/>
<path d="M155.39 26.6101H150.29L142.61 16.6501L138.77 21.0501V26.6101H134.76V3.21008H138.77V15.8201L149.2 3.21008H154.33L145.46 13.7001L155.39 26.6101Z" fill="white"/>
<path d="M161.95 6.78008V13.3001H172.64V16.7501H161.95V23.0401H175.22V26.6101H157.97V3.21008H174.63V6.78008H161.95Z" fill="white"/>
<path d="M185.12 18.5001L176.41 3.21008H181.18L187.24 14.5301L193.33 3.21008H198L189.26 18.5001V26.6101H185.12V18.5001Z" fill="white"/>
</g>
</g>
<defs>
<clipPath id="clip0_20489_39">
<rect width="198" height="30.06" fill="white"/>
</clipPath>
</defs>
</svg>
