<svg version="1.2" xmlns="http://www.w3.org/2000/svg" viewBox="0 0 600 200" width="600" height="200">
	<style>
		.s0 { fill: #1661be } 
		.s1 { fill: #c84634 } 
		.s2 { fill: #00255a } 
		.s3 { fill: #ffffff } 
	</style>
	<path id="Shape 1" fill-rule="evenodd" class="s0" d="m157 50h20c5.52 0 10 4.48 10 10v80c0 5.52-4.48 10-10 10h-20c-5.52 0-10-4.48-10-10v-80c0-5.52 4.48-10 10-10z"/>
	<path id="Shape 1 copy" fill-rule="evenodd" class="s1" d="m205 50h20c5.52 0 10 4.48 10 10v80c0 5.52-4.48 10-10 10h-20c-5.52 0-10-4.48-10-10v-80c0-5.52 4.48-10 10-10z"/>
	<path id="Shape 1 copy 2" fill-rule="evenodd" class="s2" d="m252 50h20c5.52 0 10 4.48 10 10v80c0 5.52-4.48 10-10 10h-20c-5.52 0-10-4.48-10-10v-80c0-5.52 4.48-10 10-10z"/>
	<path id="3RP" class="s3" aria-label="3RP"  d="m299.4 85c3.2-2.1 8.6-4.2 13.3-4.2 5.1 0 8.7 2 8.7 6.7 0 4.9-5.4 6.9-11.7 6.9h-3.3v11.5h3.3c10.1 0 13 3.3 13 7 0 3.9-3.5 7.1-10 7.1-6.3 0-11.3-1.7-15.8-4.2v13.4c4.3 2.1 11 3.3 17 3.3 14.9 0 23.1-7.3 23.1-17.8 0-7.7-4-12.6-10.9-14.2 6.2-2.6 9.7-7.8 9.7-14.7 0-10.2-8.4-17.4-22.1-17.4-5.4 0-10.9 1.8-14.3 3.5zm61.6-5.7h7.3c5.7 0 9.3 3.3 9.3 8.9 0 6.1-2.8 9.4-9.6 9.4h-7zm18.6 52.7h17.6l-16.4-24.9c6.9-3.1 11.8-9.2 11.8-19.1 0-12.2-9.4-20.7-24-20.7h-22.4v64.7h14.8v-22.5h4.5zm40.5-32.6v-20.3h5.8c7.6 0 10.8 3.9 10.8 9.6 0 6.5-3.2 10.7-11.7 10.7zm-14.8-32.1v64.7h14.8v-20.9h7.5c12.8 0 24.1-7.4 24.1-22.4 0-12.2-9.5-21.4-24.1-21.4z"/>
</svg>